<mxfile host="app.diagrams.net" modified="2021-08-28T11:50:23.101Z" agent="5.0 (Macintosh; Intel Mac OS X 10_15_7) AppleWebKit/537.36 (KHTML, like Gecko) Chrome/92.0.4515.159 Safari/537.36" etag="Pd1WiQQkNve3Gjvqgd-V" version="14.9.7" type="github">
  <diagram id="6a731a19-8d31-9384-78a2-239565b7b9f0" name="Page-1">
    <mxGraphModel dx="788" dy="491" grid="1" gridSize="10" guides="1" tooltips="1" connect="1" arrows="1" fold="1" page="1" pageScale="1" pageWidth="1169" pageHeight="827" background="none" math="0" shadow="0">
      <root>
        <mxCell id="0" />
        <mxCell id="1" parent="0" />
        <mxCell id="jWMCxEvZ-iChTw4o8pjY-1781" value="" style="edgeStyle=orthogonalEdgeStyle;rounded=0;orthogonalLoop=1;jettySize=auto;html=1;" edge="1" parent="1" source="jWMCxEvZ-iChTw4o8pjY-1779" target="jWMCxEvZ-iChTw4o8pjY-1780">
          <mxGeometry relative="1" as="geometry" />
        </mxCell>
        <mxCell id="jWMCxEvZ-iChTw4o8pjY-1783" value="" style="edgeStyle=orthogonalEdgeStyle;rounded=0;orthogonalLoop=1;jettySize=auto;html=1;" edge="1" parent="1" source="jWMCxEvZ-iChTw4o8pjY-1779" target="jWMCxEvZ-iChTw4o8pjY-1782">
          <mxGeometry relative="1" as="geometry" />
        </mxCell>
        <mxCell id="jWMCxEvZ-iChTw4o8pjY-1785" value="" style="edgeStyle=orthogonalEdgeStyle;rounded=0;orthogonalLoop=1;jettySize=auto;html=1;" edge="1" parent="1" source="jWMCxEvZ-iChTw4o8pjY-1779" target="jWMCxEvZ-iChTw4o8pjY-1784">
          <mxGeometry relative="1" as="geometry" />
        </mxCell>
        <mxCell id="jWMCxEvZ-iChTw4o8pjY-1787" value="" style="edgeStyle=orthogonalEdgeStyle;rounded=0;orthogonalLoop=1;jettySize=auto;html=1;" edge="1" parent="1" source="jWMCxEvZ-iChTw4o8pjY-1779" target="jWMCxEvZ-iChTw4o8pjY-1786">
          <mxGeometry relative="1" as="geometry" />
        </mxCell>
        <mxCell id="jWMCxEvZ-iChTw4o8pjY-1779" value="uber-market-platform" style="rounded=0;whiteSpace=wrap;html=1;" vertex="1" parent="1">
          <mxGeometry x="450" y="450" width="130" height="60" as="geometry" />
        </mxCell>
        <mxCell id="jWMCxEvZ-iChTw4o8pjY-1780" value="riak" style="shape=cylinder;whiteSpace=wrap;html=1;boundedLbl=1;backgroundOutline=1;rounded=0;" vertex="1" parent="1">
          <mxGeometry x="680" y="440" width="60" height="80" as="geometry" />
        </mxCell>
        <mxCell id="jWMCxEvZ-iChTw4o8pjY-1782" value="twemproxy" style="shape=cylinder;whiteSpace=wrap;html=1;boundedLbl=1;backgroundOutline=1;rounded=0;" vertex="1" parent="1">
          <mxGeometry x="485" y="300" width="60" height="80" as="geometry" />
        </mxCell>
        <mxCell id="jWMCxEvZ-iChTw4o8pjY-1784" value="ringpop-node" style="rounded=0;whiteSpace=wrap;html=1;" vertex="1" parent="1">
          <mxGeometry x="245" y="450" width="120" height="60" as="geometry" />
        </mxCell>
        <mxCell id="jWMCxEvZ-iChTw4o8pjY-1786" value="TChannel" style="shape=process;whiteSpace=wrap;html=1;backgroundOutline=1;rounded=0;" vertex="1" parent="1">
          <mxGeometry x="455" y="590" width="120" height="60" as="geometry" />
        </mxCell>
        <mxCell id="jWMCxEvZ-iChTw4o8pjY-1789" value="" style="edgeStyle=orthogonalEdgeStyle;rounded=0;orthogonalLoop=1;jettySize=auto;html=1;" edge="1" parent="1" source="jWMCxEvZ-iChTw4o8pjY-1788" target="jWMCxEvZ-iChTw4o8pjY-1786">
          <mxGeometry relative="1" as="geometry" />
        </mxCell>
        <mxCell id="jWMCxEvZ-iChTw4o8pjY-1788" value="&lt;h1&gt;TChannel&lt;/h1&gt;&lt;p&gt;uber开发的多路复用的RPC协议框架，有多种语言版本。&lt;/p&gt;&lt;p&gt;&lt;span style=&quot;background-color: rgb(255 , 255 , 255) ; color: rgb(38 , 38 , 38) ; font-family: &amp;#34;helvetica neue&amp;#34; , &amp;#34;helveticaneue&amp;#34; , &amp;#34;helvetica&amp;#34; , &amp;#34;arial&amp;#34; , &amp;#34;lucida grande&amp;#34; , sans-serif ; font-size: 15px&quot;&gt;Thrift，facebook RPC格式，类似于protobuf&lt;/span&gt;&lt;/p&gt;" style="text;html=1;strokeColor=none;fillColor=none;spacing=5;spacingTop=-20;whiteSpace=wrap;overflow=hidden;rounded=0;" vertex="1" parent="1">
          <mxGeometry x="630" y="540" width="230" height="160" as="geometry" />
        </mxCell>
        <mxCell id="jWMCxEvZ-iChTw4o8pjY-1791" value="" style="edgeStyle=orthogonalEdgeStyle;rounded=0;orthogonalLoop=1;jettySize=auto;html=1;" edge="1" parent="1" source="jWMCxEvZ-iChTw4o8pjY-1790" target="jWMCxEvZ-iChTw4o8pjY-1780">
          <mxGeometry relative="1" as="geometry" />
        </mxCell>
        <mxCell id="jWMCxEvZ-iChTw4o8pjY-1790" value="&lt;h1&gt;riak&lt;/h1&gt;&lt;div&gt;kv&amp;amp;ts&amp;amp;cs数据库&lt;/div&gt;" style="text;html=1;strokeColor=none;fillColor=none;spacing=5;spacingTop=-20;whiteSpace=wrap;overflow=hidden;rounded=0;" vertex="1" parent="1">
          <mxGeometry x="780" y="420" width="200" height="120" as="geometry" />
        </mxCell>
      </root>
    </mxGraphModel>
  </diagram>
</mxfile>
